<mxfile host="65bd71144e">
    <diagram id="olrTc7DyayNKc8Ba9cMK" name="Main">
        <mxGraphModel dx="836" dy="550" grid="1" gridSize="10" guides="1" tooltips="1" connect="1" arrows="1" fold="1" page="1" pageScale="1" pageWidth="850" pageHeight="1100" math="0" shadow="0">
            <root>
                <mxCell id="0"/>
                <mxCell id="1" parent="0"/>
                <mxCell id="2" value="" style="rounded=0;whiteSpace=wrap;html=1;movable=1;resizable=1;rotatable=1;deletable=1;editable=1;connectable=1;" vertex="1" parent="1">
                    <mxGeometry x="40" y="40" width="800" height="840" as="geometry"/>
                </mxCell>
                <mxCell id="8" value="" style="rounded=0;whiteSpace=wrap;html=1;movable=0;resizable=0;rotatable=0;deletable=0;editable=0;connectable=0;" vertex="1" parent="1">
                    <mxGeometry x="50" y="90" width="780" height="190" as="geometry"/>
                </mxCell>
                <mxCell id="9" value="" style="rounded=1;whiteSpace=wrap;html=1;" vertex="1" parent="1">
                    <mxGeometry x="115" y="155" width="200" height="100" as="geometry"/>
                </mxCell>
                <mxCell id="12" value="" style="group" vertex="1" connectable="0" parent="1">
                    <mxGeometry x="60" y="100" width="120" height="30" as="geometry"/>
                </mxCell>
                <mxCell id="10" value="Recently open" style="text;html=1;strokeColor=none;fillColor=none;align=center;verticalAlign=middle;whiteSpace=wrap;rounded=0;" vertex="1" parent="12">
                    <mxGeometry x="40" width="80" height="30" as="geometry"/>
                </mxCell>
                <mxCell id="11" value="" style="ellipse;whiteSpace=wrap;html=1;aspect=fixed;" vertex="1" parent="12">
                    <mxGeometry width="30" height="30" as="geometry"/>
                </mxCell>
                <mxCell id="13" value="" style="group" vertex="1" connectable="0" parent="1">
                    <mxGeometry x="50" y="50" width="270" height="30" as="geometry"/>
                </mxCell>
                <mxCell id="3" value="" style="rounded=1;whiteSpace=wrap;html=1;" vertex="1" parent="13">
                    <mxGeometry width="270" height="30" as="geometry"/>
                </mxCell>
                <mxCell id="7" value="" style="ellipse;whiteSpace=wrap;html=1;aspect=fixed;" vertex="1" parent="13">
                    <mxGeometry x="10" y="5" width="20" height="20" as="geometry"/>
                </mxCell>
                <mxCell id="14" value="" style="group" vertex="1" connectable="0" parent="1">
                    <mxGeometry x="660" y="50" width="170" height="30" as="geometry"/>
                </mxCell>
                <mxCell id="4" value="" style="ellipse;whiteSpace=wrap;html=1;aspect=fixed;" vertex="1" parent="14">
                    <mxGeometry x="50" width="30" height="30" as="geometry"/>
                </mxCell>
                <mxCell id="5" value="" style="rounded=1;whiteSpace=wrap;html=1;" vertex="1" parent="14">
                    <mxGeometry x="100" width="70" height="30" as="geometry"/>
                </mxCell>
                <mxCell id="6" value="" style="ellipse;whiteSpace=wrap;html=1;aspect=fixed;" vertex="1" parent="14">
                    <mxGeometry width="30" height="30" as="geometry"/>
                </mxCell>
                <mxCell id="15" value="" style="triangle;whiteSpace=wrap;html=1;" vertex="1" parent="1">
                    <mxGeometry x="195" y="185" width="40" height="30" as="geometry"/>
                </mxCell>
                <mxCell id="16" value="" style="rounded=1;whiteSpace=wrap;html=1;" vertex="1" parent="1">
                    <mxGeometry x="330" y="135" width="225" height="125" as="geometry"/>
                </mxCell>
                <mxCell id="17" value="" style="triangle;whiteSpace=wrap;html=1;" vertex="1" parent="1">
                    <mxGeometry x="426.25" y="180" width="40" height="30" as="geometry"/>
                </mxCell>
                <mxCell id="20" value="" style="group;movable=0;resizable=0;rotatable=0;deletable=0;editable=0;connectable=0;" vertex="1" connectable="0" parent="1">
                    <mxGeometry x="790" y="140" width="30" height="130" as="geometry"/>
                </mxCell>
                <mxCell id="18" value="" style="rounded=1;whiteSpace=wrap;html=1;movable=0;resizable=0;rotatable=0;deletable=0;editable=0;connectable=0;" vertex="1" parent="20">
                    <mxGeometry width="30" height="130" as="geometry"/>
                </mxCell>
                <mxCell id="19" value="" style="triangle;whiteSpace=wrap;html=1;movable=0;resizable=0;rotatable=0;deletable=0;editable=0;connectable=0;" vertex="1" parent="20">
                    <mxGeometry x="10" y="25" width="10" height="80" as="geometry"/>
                </mxCell>
                <mxCell id="21" value="" style="rounded=1;whiteSpace=wrap;html=1;" vertex="1" parent="1">
                    <mxGeometry x="115" y="235" width="200" height="20" as="geometry"/>
                </mxCell>
                <mxCell id="22" value="" style="rounded=1;whiteSpace=wrap;html=1;" vertex="1" parent="1">
                    <mxGeometry x="330" y="240" width="226.25" height="25" as="geometry"/>
                </mxCell>
                <mxCell id="23" value="" style="rounded=1;whiteSpace=wrap;html=1;" vertex="1" parent="1">
                    <mxGeometry x="330" y="240" width="120" height="25" as="geometry"/>
                </mxCell>
                <mxCell id="24" value="" style="rounded=1;whiteSpace=wrap;html=1;" vertex="1" parent="1">
                    <mxGeometry x="115" y="235" width="170" height="20" as="geometry"/>
                </mxCell>
                <mxCell id="25" value="" style="rounded=1;whiteSpace=wrap;html=1;" vertex="1" parent="1">
                    <mxGeometry x="565" y="155" width="200" height="100" as="geometry"/>
                </mxCell>
                <mxCell id="26" value="" style="triangle;whiteSpace=wrap;html=1;" vertex="1" parent="1">
                    <mxGeometry x="645" y="185" width="40" height="30" as="geometry"/>
                </mxCell>
                <mxCell id="27" value="" style="rounded=1;whiteSpace=wrap;html=1;" vertex="1" parent="1">
                    <mxGeometry x="565" y="235" width="200" height="20" as="geometry"/>
                </mxCell>
                <mxCell id="28" value="" style="rounded=1;whiteSpace=wrap;html=1;" vertex="1" parent="1">
                    <mxGeometry x="565" y="235" width="100" height="20" as="geometry"/>
                </mxCell>
                <mxCell id="29" value="" style="group;rotation=-180;movable=0;resizable=0;rotatable=0;deletable=0;editable=0;connectable=0;" vertex="1" connectable="0" parent="1">
                    <mxGeometry x="60" y="140" width="30" height="130" as="geometry"/>
                </mxCell>
                <mxCell id="30" value="" style="rounded=1;whiteSpace=wrap;html=1;rotation=-180;movable=0;resizable=0;rotatable=0;deletable=0;editable=0;connectable=0;" vertex="1" parent="29">
                    <mxGeometry width="30" height="130" as="geometry"/>
                </mxCell>
                <mxCell id="31" value="" style="triangle;whiteSpace=wrap;html=1;rotation=-180;movable=0;resizable=0;rotatable=0;deletable=0;editable=0;connectable=0;" vertex="1" parent="29">
                    <mxGeometry x="10" y="25" width="10" height="80" as="geometry"/>
                </mxCell>
                <mxCell id="33" value="" style="rounded=0;whiteSpace=wrap;html=1;movable=0;resizable=0;rotatable=0;deletable=0;editable=0;connectable=0;" vertex="1" parent="1">
                    <mxGeometry x="50" y="300" width="780" height="190" as="geometry"/>
                </mxCell>
                <mxCell id="42" value="Favorites" style="text;html=1;strokeColor=none;fillColor=none;align=center;verticalAlign=middle;whiteSpace=wrap;rounded=0;" vertex="1" parent="1">
                    <mxGeometry x="730" y="310" width="55" height="30" as="geometry"/>
                </mxCell>
                <mxCell id="43" value="" style="ellipse;whiteSpace=wrap;html=1;aspect=fixed;" vertex="1" parent="1">
                    <mxGeometry x="790" y="310" width="30" height="30" as="geometry"/>
                </mxCell>
                <mxCell id="52" value="" style="group" vertex="1" connectable="0" parent="1">
                    <mxGeometry x="100" y="360" width="200" height="100" as="geometry"/>
                </mxCell>
                <mxCell id="46" value="" style="rounded=1;whiteSpace=wrap;html=1;" vertex="1" parent="52">
                    <mxGeometry width="200" height="100" as="geometry"/>
                </mxCell>
                <mxCell id="48" value="" style="html=1;verticalLabelPosition=bottom;align=center;labelBackgroundColor=#ffffff;verticalAlign=top;strokeWidth=2;strokeColor=#0080F0;shadow=0;dashed=0;shape=mxgraph.ios7.icons.note;pointerEvents=1" vertex="1" parent="52">
                    <mxGeometry x="85.14999999999998" y="35.14999999999998" width="29.7" height="29.7" as="geometry"/>
                </mxCell>
                <mxCell id="53" value="" style="group" vertex="1" connectable="0" parent="1">
                    <mxGeometry x="585" y="360" width="200" height="100" as="geometry"/>
                </mxCell>
                <mxCell id="49" value="" style="rounded=1;whiteSpace=wrap;html=1;" vertex="1" parent="53">
                    <mxGeometry width="200" height="100" as="geometry"/>
                </mxCell>
                <mxCell id="50" value="" style="ellipse;shape=cloud;whiteSpace=wrap;html=1;" vertex="1" parent="53">
                    <mxGeometry x="40" y="10" width="120" height="80" as="geometry"/>
                </mxCell>
                <mxCell id="54" value="" style="group" vertex="1" connectable="0" parent="1">
                    <mxGeometry x="323.75" y="350" width="232.5" height="120" as="geometry"/>
                </mxCell>
                <mxCell id="34" value="" style="rounded=1;whiteSpace=wrap;html=1;" vertex="1" parent="54">
                    <mxGeometry width="232.5" height="120" as="geometry"/>
                </mxCell>
                <mxCell id="35" value="" style="triangle;whiteSpace=wrap;html=1;" vertex="1" parent="54">
                    <mxGeometry x="96.25" y="40" width="40" height="40" as="geometry"/>
                </mxCell>
                <mxCell id="58" value="" style="rounded=0;whiteSpace=wrap;html=1;movable=0;resizable=0;rotatable=0;deletable=0;editable=0;connectable=0;" vertex="1" parent="1">
                    <mxGeometry x="50" y="510" width="775" height="350" as="geometry"/>
                </mxCell>
                <mxCell id="59" value="" style="group" vertex="1" connectable="0" parent="1">
                    <mxGeometry x="103" y="560" width="110" height="120" as="geometry"/>
                </mxCell>
                <mxCell id="60" value="" style="rounded=1;whiteSpace=wrap;html=1;" vertex="1" parent="59">
                    <mxGeometry width="110" height="120" as="geometry"/>
                </mxCell>
                <mxCell id="61" value="" style="triangle;whiteSpace=wrap;html=1;" vertex="1" parent="59">
                    <mxGeometry x="45.537634408602145" y="40" width="18.924731182795696" height="40" as="geometry"/>
                </mxCell>
                <mxCell id="62" value="" style="group" vertex="1" connectable="0" parent="1">
                    <mxGeometry x="103" y="700" width="110" height="120" as="geometry"/>
                </mxCell>
                <mxCell id="63" value="" style="rounded=1;whiteSpace=wrap;html=1;" vertex="1" parent="62">
                    <mxGeometry width="110" height="120" as="geometry"/>
                </mxCell>
                <mxCell id="64" value="" style="triangle;whiteSpace=wrap;html=1;" vertex="1" parent="62">
                    <mxGeometry x="45.537634408602145" y="40" width="18.924731182795696" height="40" as="geometry"/>
                </mxCell>
                <mxCell id="65" value="" style="group" vertex="1" connectable="0" parent="1">
                    <mxGeometry x="243" y="560" width="110" height="120" as="geometry"/>
                </mxCell>
                <mxCell id="66" value="" style="rounded=1;whiteSpace=wrap;html=1;" vertex="1" parent="65">
                    <mxGeometry width="110" height="120" as="geometry"/>
                </mxCell>
                <mxCell id="67" value="" style="triangle;whiteSpace=wrap;html=1;" vertex="1" parent="65">
                    <mxGeometry x="45.537634408602145" y="40" width="18.924731182795696" height="40" as="geometry"/>
                </mxCell>
                <mxCell id="68" value="" style="group" vertex="1" connectable="0" parent="1">
                    <mxGeometry x="243" y="700" width="110" height="120" as="geometry"/>
                </mxCell>
                <mxCell id="69" value="" style="rounded=1;whiteSpace=wrap;html=1;" vertex="1" parent="68">
                    <mxGeometry width="110" height="120" as="geometry"/>
                </mxCell>
                <mxCell id="70" value="" style="triangle;whiteSpace=wrap;html=1;" vertex="1" parent="68">
                    <mxGeometry x="45.537634408602145" y="40" width="18.924731182795696" height="40" as="geometry"/>
                </mxCell>
                <mxCell id="71" value="" style="group" vertex="1" connectable="0" parent="1">
                    <mxGeometry x="378" y="560" width="110" height="120" as="geometry"/>
                </mxCell>
                <mxCell id="72" value="" style="rounded=1;whiteSpace=wrap;html=1;" vertex="1" parent="71">
                    <mxGeometry width="110" height="120" as="geometry"/>
                </mxCell>
                <mxCell id="73" value="" style="triangle;whiteSpace=wrap;html=1;" vertex="1" parent="71">
                    <mxGeometry x="45.537634408602145" y="40" width="18.924731182795696" height="40" as="geometry"/>
                </mxCell>
                <mxCell id="74" value="" style="group" vertex="1" connectable="0" parent="1">
                    <mxGeometry x="378" y="700" width="110" height="120" as="geometry"/>
                </mxCell>
                <mxCell id="75" value="" style="rounded=1;whiteSpace=wrap;html=1;" vertex="1" parent="74">
                    <mxGeometry width="110" height="120" as="geometry"/>
                </mxCell>
                <mxCell id="76" value="" style="triangle;whiteSpace=wrap;html=1;" vertex="1" parent="74">
                    <mxGeometry x="45.537634408602145" y="40" width="18.924731182795696" height="40" as="geometry"/>
                </mxCell>
                <mxCell id="77" value="" style="group" vertex="1" connectable="0" parent="1">
                    <mxGeometry x="508" y="560" width="110" height="120" as="geometry"/>
                </mxCell>
                <mxCell id="78" value="" style="rounded=1;whiteSpace=wrap;html=1;" vertex="1" parent="77">
                    <mxGeometry width="110" height="120" as="geometry"/>
                </mxCell>
                <mxCell id="79" value="" style="triangle;whiteSpace=wrap;html=1;" vertex="1" parent="77">
                    <mxGeometry x="45.537634408602145" y="40" width="18.924731182795696" height="40" as="geometry"/>
                </mxCell>
                <mxCell id="80" value="" style="group" vertex="1" connectable="0" parent="1">
                    <mxGeometry x="508" y="700" width="110" height="120" as="geometry"/>
                </mxCell>
                <mxCell id="81" value="" style="rounded=1;whiteSpace=wrap;html=1;" vertex="1" parent="80">
                    <mxGeometry width="110" height="120" as="geometry"/>
                </mxCell>
                <mxCell id="82" value="" style="triangle;whiteSpace=wrap;html=1;" vertex="1" parent="80">
                    <mxGeometry x="45.537634408602145" y="40" width="18.924731182795696" height="40" as="geometry"/>
                </mxCell>
                <mxCell id="83" value="" style="group" vertex="1" connectable="0" parent="1">
                    <mxGeometry x="638" y="560" width="110" height="120" as="geometry"/>
                </mxCell>
                <mxCell id="84" value="" style="rounded=1;whiteSpace=wrap;html=1;" vertex="1" parent="83">
                    <mxGeometry width="110" height="120" as="geometry"/>
                </mxCell>
                <mxCell id="85" value="" style="triangle;whiteSpace=wrap;html=1;" vertex="1" parent="83">
                    <mxGeometry x="45.537634408602145" y="40" width="18.924731182795696" height="40" as="geometry"/>
                </mxCell>
                <mxCell id="89" value="Filter" style="text;html=1;strokeColor=none;fillColor=none;align=center;verticalAlign=middle;whiteSpace=wrap;rounded=0;" vertex="1" parent="1">
                    <mxGeometry x="750" y="520" width="35" height="30" as="geometry"/>
                </mxCell>
                <mxCell id="90" value="" style="ellipse;whiteSpace=wrap;html=1;aspect=fixed;" vertex="1" parent="1">
                    <mxGeometry x="790" y="520" width="30" height="30" as="geometry"/>
                </mxCell>
            </root>
        </mxGraphModel>
    </diagram>
    <diagram name="Setting" id="ZplSqSZhj4sTlodDiV2h">
        <mxGraphModel dx="836" dy="550" grid="1" gridSize="10" guides="1" tooltips="1" connect="1" arrows="1" fold="1" page="1" pageScale="1" pageWidth="850" pageHeight="1100" math="0" shadow="0">
            <root>
                <mxCell id="B9085mHuNf0l8RU1_HHZ-0"/>
                <mxCell id="B9085mHuNf0l8RU1_HHZ-1" parent="B9085mHuNf0l8RU1_HHZ-0"/>
                <mxCell id="dcoyDgPZmvbn902EZFK9-3" value="" style="group;movable=0;resizable=0;rotatable=0;deletable=0;editable=0;connectable=0;" vertex="1" connectable="0" parent="B9085mHuNf0l8RU1_HHZ-1">
                    <mxGeometry x="40" y="40" width="800" height="840" as="geometry"/>
                </mxCell>
                <mxCell id="B9085mHuNf0l8RU1_HHZ-2" value="" style="rounded=0;whiteSpace=wrap;html=1;movable=1;resizable=1;rotatable=1;deletable=1;editable=1;connectable=1;" vertex="1" parent="dcoyDgPZmvbn902EZFK9-3">
                    <mxGeometry width="800" height="840" as="geometry"/>
                </mxCell>
                <mxCell id="B9085mHuNf0l8RU1_HHZ-3" value="" style="rounded=0;whiteSpace=wrap;html=1;movable=0;resizable=0;rotatable=0;deletable=0;editable=0;connectable=0;" vertex="1" parent="dcoyDgPZmvbn902EZFK9-3">
                    <mxGeometry x="10" y="50" width="780" height="190" as="geometry"/>
                </mxCell>
                <mxCell id="B9085mHuNf0l8RU1_HHZ-4" value="" style="rounded=1;whiteSpace=wrap;html=1;" vertex="1" parent="dcoyDgPZmvbn902EZFK9-3">
                    <mxGeometry x="75" y="115" width="200" height="100" as="geometry"/>
                </mxCell>
                <mxCell id="B9085mHuNf0l8RU1_HHZ-5" value="" style="group" vertex="1" connectable="0" parent="dcoyDgPZmvbn902EZFK9-3">
                    <mxGeometry x="20" y="60" width="120" height="30" as="geometry"/>
                </mxCell>
                <mxCell id="B9085mHuNf0l8RU1_HHZ-6" value="Recently open" style="text;html=1;strokeColor=none;fillColor=none;align=center;verticalAlign=middle;whiteSpace=wrap;rounded=0;" vertex="1" parent="B9085mHuNf0l8RU1_HHZ-5">
                    <mxGeometry x="40" width="80" height="30" as="geometry"/>
                </mxCell>
                <mxCell id="B9085mHuNf0l8RU1_HHZ-7" value="" style="ellipse;whiteSpace=wrap;html=1;aspect=fixed;" vertex="1" parent="B9085mHuNf0l8RU1_HHZ-5">
                    <mxGeometry width="30" height="30" as="geometry"/>
                </mxCell>
                <mxCell id="B9085mHuNf0l8RU1_HHZ-8" value="" style="group" vertex="1" connectable="0" parent="dcoyDgPZmvbn902EZFK9-3">
                    <mxGeometry x="10" y="10" width="270" height="30" as="geometry"/>
                </mxCell>
                <mxCell id="B9085mHuNf0l8RU1_HHZ-9" value="" style="rounded=1;whiteSpace=wrap;html=1;" vertex="1" parent="B9085mHuNf0l8RU1_HHZ-8">
                    <mxGeometry width="270" height="30" as="geometry"/>
                </mxCell>
                <mxCell id="B9085mHuNf0l8RU1_HHZ-10" value="" style="ellipse;whiteSpace=wrap;html=1;aspect=fixed;" vertex="1" parent="B9085mHuNf0l8RU1_HHZ-8">
                    <mxGeometry x="10" y="5" width="20" height="20" as="geometry"/>
                </mxCell>
                <mxCell id="B9085mHuNf0l8RU1_HHZ-11" value="" style="group" vertex="1" connectable="0" parent="dcoyDgPZmvbn902EZFK9-3">
                    <mxGeometry x="620" y="10" width="170" height="30" as="geometry"/>
                </mxCell>
                <mxCell id="B9085mHuNf0l8RU1_HHZ-12" value="" style="ellipse;whiteSpace=wrap;html=1;aspect=fixed;" vertex="1" parent="B9085mHuNf0l8RU1_HHZ-11">
                    <mxGeometry x="50" width="30" height="30" as="geometry"/>
                </mxCell>
                <mxCell id="B9085mHuNf0l8RU1_HHZ-13" value="" style="rounded=1;whiteSpace=wrap;html=1;" vertex="1" parent="B9085mHuNf0l8RU1_HHZ-11">
                    <mxGeometry x="100" width="70" height="30" as="geometry"/>
                </mxCell>
                <mxCell id="B9085mHuNf0l8RU1_HHZ-14" value="" style="ellipse;whiteSpace=wrap;html=1;aspect=fixed;" vertex="1" parent="B9085mHuNf0l8RU1_HHZ-11">
                    <mxGeometry width="30" height="30" as="geometry"/>
                </mxCell>
                <mxCell id="B9085mHuNf0l8RU1_HHZ-15" value="" style="triangle;whiteSpace=wrap;html=1;" vertex="1" parent="dcoyDgPZmvbn902EZFK9-3">
                    <mxGeometry x="155" y="145" width="40" height="30" as="geometry"/>
                </mxCell>
                <mxCell id="B9085mHuNf0l8RU1_HHZ-16" value="" style="rounded=1;whiteSpace=wrap;html=1;" vertex="1" parent="dcoyDgPZmvbn902EZFK9-3">
                    <mxGeometry x="290" y="95" width="225" height="125" as="geometry"/>
                </mxCell>
                <mxCell id="B9085mHuNf0l8RU1_HHZ-17" value="" style="triangle;whiteSpace=wrap;html=1;" vertex="1" parent="dcoyDgPZmvbn902EZFK9-3">
                    <mxGeometry x="386.25" y="140" width="40" height="30" as="geometry"/>
                </mxCell>
                <mxCell id="B9085mHuNf0l8RU1_HHZ-18" value="" style="group;movable=0;resizable=0;rotatable=0;deletable=0;editable=0;connectable=0;" vertex="1" connectable="0" parent="dcoyDgPZmvbn902EZFK9-3">
                    <mxGeometry x="750" y="100" width="30" height="130" as="geometry"/>
                </mxCell>
                <mxCell id="B9085mHuNf0l8RU1_HHZ-19" value="" style="rounded=1;whiteSpace=wrap;html=1;movable=0;resizable=0;rotatable=0;deletable=0;editable=0;connectable=0;" vertex="1" parent="B9085mHuNf0l8RU1_HHZ-18">
                    <mxGeometry width="30" height="130" as="geometry"/>
                </mxCell>
                <mxCell id="B9085mHuNf0l8RU1_HHZ-20" value="" style="triangle;whiteSpace=wrap;html=1;movable=0;resizable=0;rotatable=0;deletable=0;editable=0;connectable=0;" vertex="1" parent="B9085mHuNf0l8RU1_HHZ-18">
                    <mxGeometry x="10" y="25" width="10" height="80" as="geometry"/>
                </mxCell>
                <mxCell id="B9085mHuNf0l8RU1_HHZ-21" value="" style="rounded=1;whiteSpace=wrap;html=1;" vertex="1" parent="dcoyDgPZmvbn902EZFK9-3">
                    <mxGeometry x="75" y="195" width="200" height="20" as="geometry"/>
                </mxCell>
                <mxCell id="B9085mHuNf0l8RU1_HHZ-22" value="" style="rounded=1;whiteSpace=wrap;html=1;" vertex="1" parent="dcoyDgPZmvbn902EZFK9-3">
                    <mxGeometry x="290" y="200" width="226.25" height="25" as="geometry"/>
                </mxCell>
                <mxCell id="B9085mHuNf0l8RU1_HHZ-23" value="" style="rounded=1;whiteSpace=wrap;html=1;" vertex="1" parent="dcoyDgPZmvbn902EZFK9-3">
                    <mxGeometry x="290" y="200" width="120" height="25" as="geometry"/>
                </mxCell>
                <mxCell id="B9085mHuNf0l8RU1_HHZ-24" value="" style="rounded=1;whiteSpace=wrap;html=1;" vertex="1" parent="dcoyDgPZmvbn902EZFK9-3">
                    <mxGeometry x="75" y="195" width="170" height="20" as="geometry"/>
                </mxCell>
                <mxCell id="B9085mHuNf0l8RU1_HHZ-25" value="" style="rounded=1;whiteSpace=wrap;html=1;" vertex="1" parent="dcoyDgPZmvbn902EZFK9-3">
                    <mxGeometry x="525" y="115" width="200" height="100" as="geometry"/>
                </mxCell>
                <mxCell id="B9085mHuNf0l8RU1_HHZ-26" value="" style="triangle;whiteSpace=wrap;html=1;" vertex="1" parent="dcoyDgPZmvbn902EZFK9-3">
                    <mxGeometry x="605" y="145" width="40" height="30" as="geometry"/>
                </mxCell>
                <mxCell id="B9085mHuNf0l8RU1_HHZ-27" value="" style="rounded=1;whiteSpace=wrap;html=1;" vertex="1" parent="dcoyDgPZmvbn902EZFK9-3">
                    <mxGeometry x="525" y="195" width="200" height="20" as="geometry"/>
                </mxCell>
                <mxCell id="B9085mHuNf0l8RU1_HHZ-28" value="" style="rounded=1;whiteSpace=wrap;html=1;" vertex="1" parent="dcoyDgPZmvbn902EZFK9-3">
                    <mxGeometry x="525" y="195" width="100" height="20" as="geometry"/>
                </mxCell>
                <mxCell id="B9085mHuNf0l8RU1_HHZ-29" value="" style="group;rotation=-180;movable=0;resizable=0;rotatable=0;deletable=0;editable=0;connectable=0;" vertex="1" connectable="0" parent="dcoyDgPZmvbn902EZFK9-3">
                    <mxGeometry x="20" y="100" width="30" height="130" as="geometry"/>
                </mxCell>
                <mxCell id="B9085mHuNf0l8RU1_HHZ-30" value="" style="rounded=1;whiteSpace=wrap;html=1;rotation=-180;movable=0;resizable=0;rotatable=0;deletable=0;editable=0;connectable=0;" vertex="1" parent="B9085mHuNf0l8RU1_HHZ-29">
                    <mxGeometry width="30" height="130" as="geometry"/>
                </mxCell>
                <mxCell id="B9085mHuNf0l8RU1_HHZ-31" value="" style="triangle;whiteSpace=wrap;html=1;rotation=-180;movable=0;resizable=0;rotatable=0;deletable=0;editable=0;connectable=0;" vertex="1" parent="B9085mHuNf0l8RU1_HHZ-29">
                    <mxGeometry x="10" y="25" width="10" height="80" as="geometry"/>
                </mxCell>
                <mxCell id="B9085mHuNf0l8RU1_HHZ-32" value="" style="rounded=0;whiteSpace=wrap;html=1;movable=0;resizable=0;rotatable=0;deletable=0;editable=0;connectable=0;" vertex="1" parent="dcoyDgPZmvbn902EZFK9-3">
                    <mxGeometry x="10" y="260" width="780" height="190" as="geometry"/>
                </mxCell>
                <mxCell id="B9085mHuNf0l8RU1_HHZ-33" value="Favorites" style="text;html=1;strokeColor=none;fillColor=none;align=center;verticalAlign=middle;whiteSpace=wrap;rounded=0;" vertex="1" parent="dcoyDgPZmvbn902EZFK9-3">
                    <mxGeometry x="690" y="270" width="55" height="30" as="geometry"/>
                </mxCell>
                <mxCell id="B9085mHuNf0l8RU1_HHZ-34" value="" style="ellipse;whiteSpace=wrap;html=1;aspect=fixed;" vertex="1" parent="dcoyDgPZmvbn902EZFK9-3">
                    <mxGeometry x="750" y="270" width="30" height="30" as="geometry"/>
                </mxCell>
                <mxCell id="B9085mHuNf0l8RU1_HHZ-35" value="" style="group" vertex="1" connectable="0" parent="dcoyDgPZmvbn902EZFK9-3">
                    <mxGeometry x="60" y="320" width="200" height="100" as="geometry"/>
                </mxCell>
                <mxCell id="B9085mHuNf0l8RU1_HHZ-36" value="" style="rounded=1;whiteSpace=wrap;html=1;" vertex="1" parent="B9085mHuNf0l8RU1_HHZ-35">
                    <mxGeometry width="200" height="100" as="geometry"/>
                </mxCell>
                <mxCell id="B9085mHuNf0l8RU1_HHZ-37" value="" style="html=1;verticalLabelPosition=bottom;align=center;labelBackgroundColor=#ffffff;verticalAlign=top;strokeWidth=2;strokeColor=#0080F0;shadow=0;dashed=0;shape=mxgraph.ios7.icons.note;pointerEvents=1" vertex="1" parent="B9085mHuNf0l8RU1_HHZ-35">
                    <mxGeometry x="85.14999999999998" y="35.14999999999998" width="29.7" height="29.7" as="geometry"/>
                </mxCell>
                <mxCell id="B9085mHuNf0l8RU1_HHZ-38" value="" style="group" vertex="1" connectable="0" parent="dcoyDgPZmvbn902EZFK9-3">
                    <mxGeometry x="545" y="320" width="200" height="100" as="geometry"/>
                </mxCell>
                <mxCell id="B9085mHuNf0l8RU1_HHZ-39" value="" style="rounded=1;whiteSpace=wrap;html=1;" vertex="1" parent="B9085mHuNf0l8RU1_HHZ-38">
                    <mxGeometry width="200" height="100" as="geometry"/>
                </mxCell>
                <mxCell id="B9085mHuNf0l8RU1_HHZ-40" value="" style="ellipse;shape=cloud;whiteSpace=wrap;html=1;" vertex="1" parent="B9085mHuNf0l8RU1_HHZ-38">
                    <mxGeometry x="40" y="10" width="120" height="80" as="geometry"/>
                </mxCell>
                <mxCell id="B9085mHuNf0l8RU1_HHZ-41" value="" style="group" vertex="1" connectable="0" parent="dcoyDgPZmvbn902EZFK9-3">
                    <mxGeometry x="283.75" y="310" width="232.5" height="120" as="geometry"/>
                </mxCell>
                <mxCell id="B9085mHuNf0l8RU1_HHZ-42" value="" style="rounded=1;whiteSpace=wrap;html=1;" vertex="1" parent="B9085mHuNf0l8RU1_HHZ-41">
                    <mxGeometry width="232.5" height="120" as="geometry"/>
                </mxCell>
                <mxCell id="B9085mHuNf0l8RU1_HHZ-43" value="" style="triangle;whiteSpace=wrap;html=1;" vertex="1" parent="B9085mHuNf0l8RU1_HHZ-41">
                    <mxGeometry x="96.25" y="40" width="40" height="40" as="geometry"/>
                </mxCell>
                <mxCell id="B9085mHuNf0l8RU1_HHZ-44" value="" style="rounded=0;whiteSpace=wrap;html=1;movable=0;resizable=0;rotatable=0;deletable=0;editable=0;connectable=0;" vertex="1" parent="dcoyDgPZmvbn902EZFK9-3">
                    <mxGeometry x="10" y="470" width="775" height="350" as="geometry"/>
                </mxCell>
                <mxCell id="B9085mHuNf0l8RU1_HHZ-45" value="" style="group" vertex="1" connectable="0" parent="dcoyDgPZmvbn902EZFK9-3">
                    <mxGeometry x="63" y="520" width="110" height="120" as="geometry"/>
                </mxCell>
                <mxCell id="B9085mHuNf0l8RU1_HHZ-46" value="" style="rounded=1;whiteSpace=wrap;html=1;" vertex="1" parent="B9085mHuNf0l8RU1_HHZ-45">
                    <mxGeometry width="110" height="120" as="geometry"/>
                </mxCell>
                <mxCell id="B9085mHuNf0l8RU1_HHZ-47" value="" style="triangle;whiteSpace=wrap;html=1;" vertex="1" parent="B9085mHuNf0l8RU1_HHZ-45">
                    <mxGeometry x="45.537634408602145" y="40" width="18.924731182795696" height="40" as="geometry"/>
                </mxCell>
                <mxCell id="B9085mHuNf0l8RU1_HHZ-48" value="" style="group" vertex="1" connectable="0" parent="dcoyDgPZmvbn902EZFK9-3">
                    <mxGeometry x="63" y="660" width="110" height="120" as="geometry"/>
                </mxCell>
                <mxCell id="B9085mHuNf0l8RU1_HHZ-49" value="" style="rounded=1;whiteSpace=wrap;html=1;" vertex="1" parent="B9085mHuNf0l8RU1_HHZ-48">
                    <mxGeometry width="110" height="120" as="geometry"/>
                </mxCell>
                <mxCell id="B9085mHuNf0l8RU1_HHZ-50" value="" style="triangle;whiteSpace=wrap;html=1;" vertex="1" parent="B9085mHuNf0l8RU1_HHZ-48">
                    <mxGeometry x="45.537634408602145" y="40" width="18.924731182795696" height="40" as="geometry"/>
                </mxCell>
                <mxCell id="B9085mHuNf0l8RU1_HHZ-51" value="" style="group" vertex="1" connectable="0" parent="dcoyDgPZmvbn902EZFK9-3">
                    <mxGeometry x="203" y="520" width="110" height="120" as="geometry"/>
                </mxCell>
                <mxCell id="B9085mHuNf0l8RU1_HHZ-52" value="" style="rounded=1;whiteSpace=wrap;html=1;" vertex="1" parent="B9085mHuNf0l8RU1_HHZ-51">
                    <mxGeometry width="110" height="120" as="geometry"/>
                </mxCell>
                <mxCell id="B9085mHuNf0l8RU1_HHZ-53" value="" style="triangle;whiteSpace=wrap;html=1;" vertex="1" parent="B9085mHuNf0l8RU1_HHZ-51">
                    <mxGeometry x="45.537634408602145" y="40" width="18.924731182795696" height="40" as="geometry"/>
                </mxCell>
                <mxCell id="B9085mHuNf0l8RU1_HHZ-54" value="" style="group" vertex="1" connectable="0" parent="dcoyDgPZmvbn902EZFK9-3">
                    <mxGeometry x="203" y="660" width="110" height="120" as="geometry"/>
                </mxCell>
                <mxCell id="B9085mHuNf0l8RU1_HHZ-55" value="" style="rounded=1;whiteSpace=wrap;html=1;" vertex="1" parent="B9085mHuNf0l8RU1_HHZ-54">
                    <mxGeometry width="110" height="120" as="geometry"/>
                </mxCell>
                <mxCell id="B9085mHuNf0l8RU1_HHZ-56" value="" style="triangle;whiteSpace=wrap;html=1;" vertex="1" parent="B9085mHuNf0l8RU1_HHZ-54">
                    <mxGeometry x="45.537634408602145" y="40" width="18.924731182795696" height="40" as="geometry"/>
                </mxCell>
                <mxCell id="B9085mHuNf0l8RU1_HHZ-57" value="" style="group" vertex="1" connectable="0" parent="dcoyDgPZmvbn902EZFK9-3">
                    <mxGeometry x="338" y="520" width="110" height="120" as="geometry"/>
                </mxCell>
                <mxCell id="B9085mHuNf0l8RU1_HHZ-58" value="" style="rounded=1;whiteSpace=wrap;html=1;" vertex="1" parent="B9085mHuNf0l8RU1_HHZ-57">
                    <mxGeometry width="110" height="120" as="geometry"/>
                </mxCell>
                <mxCell id="B9085mHuNf0l8RU1_HHZ-59" value="" style="triangle;whiteSpace=wrap;html=1;" vertex="1" parent="B9085mHuNf0l8RU1_HHZ-57">
                    <mxGeometry x="45.537634408602145" y="40" width="18.924731182795696" height="40" as="geometry"/>
                </mxCell>
                <mxCell id="B9085mHuNf0l8RU1_HHZ-60" value="" style="group" vertex="1" connectable="0" parent="dcoyDgPZmvbn902EZFK9-3">
                    <mxGeometry x="338" y="660" width="110" height="120" as="geometry"/>
                </mxCell>
                <mxCell id="B9085mHuNf0l8RU1_HHZ-61" value="" style="rounded=1;whiteSpace=wrap;html=1;" vertex="1" parent="B9085mHuNf0l8RU1_HHZ-60">
                    <mxGeometry width="110" height="120" as="geometry"/>
                </mxCell>
                <mxCell id="B9085mHuNf0l8RU1_HHZ-62" value="" style="triangle;whiteSpace=wrap;html=1;" vertex="1" parent="B9085mHuNf0l8RU1_HHZ-60">
                    <mxGeometry x="45.537634408602145" y="40" width="18.924731182795696" height="40" as="geometry"/>
                </mxCell>
                <mxCell id="B9085mHuNf0l8RU1_HHZ-63" value="" style="group" vertex="1" connectable="0" parent="dcoyDgPZmvbn902EZFK9-3">
                    <mxGeometry x="468" y="520" width="110" height="120" as="geometry"/>
                </mxCell>
                <mxCell id="B9085mHuNf0l8RU1_HHZ-64" value="" style="rounded=1;whiteSpace=wrap;html=1;" vertex="1" parent="B9085mHuNf0l8RU1_HHZ-63">
                    <mxGeometry width="110" height="120" as="geometry"/>
                </mxCell>
                <mxCell id="B9085mHuNf0l8RU1_HHZ-65" value="" style="triangle;whiteSpace=wrap;html=1;" vertex="1" parent="B9085mHuNf0l8RU1_HHZ-63">
                    <mxGeometry x="45.537634408602145" y="40" width="18.924731182795696" height="40" as="geometry"/>
                </mxCell>
                <mxCell id="B9085mHuNf0l8RU1_HHZ-66" value="" style="group" vertex="1" connectable="0" parent="dcoyDgPZmvbn902EZFK9-3">
                    <mxGeometry x="468" y="660" width="110" height="120" as="geometry"/>
                </mxCell>
                <mxCell id="B9085mHuNf0l8RU1_HHZ-67" value="" style="rounded=1;whiteSpace=wrap;html=1;" vertex="1" parent="B9085mHuNf0l8RU1_HHZ-66">
                    <mxGeometry width="110" height="120" as="geometry"/>
                </mxCell>
                <mxCell id="B9085mHuNf0l8RU1_HHZ-68" value="" style="triangle;whiteSpace=wrap;html=1;" vertex="1" parent="B9085mHuNf0l8RU1_HHZ-66">
                    <mxGeometry x="45.537634408602145" y="40" width="18.924731182795696" height="40" as="geometry"/>
                </mxCell>
                <mxCell id="B9085mHuNf0l8RU1_HHZ-69" value="" style="group" vertex="1" connectable="0" parent="dcoyDgPZmvbn902EZFK9-3">
                    <mxGeometry x="598" y="520" width="110" height="120" as="geometry"/>
                </mxCell>
                <mxCell id="B9085mHuNf0l8RU1_HHZ-70" value="" style="rounded=1;whiteSpace=wrap;html=1;" vertex="1" parent="B9085mHuNf0l8RU1_HHZ-69">
                    <mxGeometry width="110" height="120" as="geometry"/>
                </mxCell>
                <mxCell id="B9085mHuNf0l8RU1_HHZ-71" value="" style="triangle;whiteSpace=wrap;html=1;" vertex="1" parent="B9085mHuNf0l8RU1_HHZ-69">
                    <mxGeometry x="45.537634408602145" y="40" width="18.924731182795696" height="40" as="geometry"/>
                </mxCell>
                <mxCell id="B9085mHuNf0l8RU1_HHZ-72" value="Filter" style="text;html=1;strokeColor=none;fillColor=none;align=center;verticalAlign=middle;whiteSpace=wrap;rounded=0;" vertex="1" parent="dcoyDgPZmvbn902EZFK9-3">
                    <mxGeometry x="710" y="480" width="35" height="30" as="geometry"/>
                </mxCell>
                <mxCell id="B9085mHuNf0l8RU1_HHZ-73" value="" style="ellipse;whiteSpace=wrap;html=1;aspect=fixed;" vertex="1" parent="dcoyDgPZmvbn902EZFK9-3">
                    <mxGeometry x="750" y="480" width="30" height="30" as="geometry"/>
                </mxCell>
                <mxCell id="dcoyDgPZmvbn902EZFK9-4" value="" style="rounded=0;whiteSpace=wrap;html=1;movable=0;resizable=0;rotatable=0;deletable=0;editable=0;connectable=0;" vertex="1" parent="dcoyDgPZmvbn902EZFK9-3">
                    <mxGeometry x="135" y="30" width="655" height="420" as="geometry"/>
                </mxCell>
                <mxCell id="dcoyDgPZmvbn902EZFK9-5" value="" style="rounded=1;whiteSpace=wrap;html=1;" vertex="1" parent="dcoyDgPZmvbn902EZFK9-3">
                    <mxGeometry x="237.5" y="390" width="180" height="40" as="geometry"/>
                </mxCell>
                <mxCell id="dcoyDgPZmvbn902EZFK9-6" value="" style="ellipse;whiteSpace=wrap;html=1;aspect=fixed;" vertex="1" parent="dcoyDgPZmvbn902EZFK9-3">
                    <mxGeometry x="252.5" y="392.5" width="35" height="35" as="geometry"/>
                </mxCell>
                <mxCell id="dcoyDgPZmvbn902EZFK9-7" value="" style="rounded=1;whiteSpace=wrap;html=1;" vertex="1" parent="dcoyDgPZmvbn902EZFK9-3">
                    <mxGeometry x="507.5" y="390" width="180" height="40" as="geometry"/>
                </mxCell>
                <mxCell id="dcoyDgPZmvbn902EZFK9-8" value="" style="ellipse;whiteSpace=wrap;html=1;aspect=fixed;" vertex="1" parent="dcoyDgPZmvbn902EZFK9-3">
                    <mxGeometry x="522.5" y="392.5" width="35" height="35" as="geometry"/>
                </mxCell>
                <mxCell id="dcoyDgPZmvbn902EZFK9-9" value="" style="rounded=1;whiteSpace=wrap;html=1;" vertex="1" parent="dcoyDgPZmvbn902EZFK9-3">
                    <mxGeometry x="167.5" y="280" width="160" height="40" as="geometry"/>
                </mxCell>
                <mxCell id="dcoyDgPZmvbn902EZFK9-11" value="" style="rounded=1;whiteSpace=wrap;html=1;" vertex="1" parent="dcoyDgPZmvbn902EZFK9-3">
                    <mxGeometry x="277.5" y="280" width="50" height="40" as="geometry"/>
                </mxCell>
                <mxCell id="dcoyDgPZmvbn902EZFK9-12" value="" style="rounded=1;whiteSpace=wrap;html=1;" vertex="1" parent="dcoyDgPZmvbn902EZFK9-3">
                    <mxGeometry x="377.5" y="280" width="160" height="40" as="geometry"/>
                </mxCell>
                <mxCell id="dcoyDgPZmvbn902EZFK9-13" value="" style="rounded=1;whiteSpace=wrap;html=1;" vertex="1" parent="dcoyDgPZmvbn902EZFK9-3">
                    <mxGeometry x="487.5" y="280" width="50" height="40" as="geometry"/>
                </mxCell>
                <mxCell id="dcoyDgPZmvbn902EZFK9-14" value="" style="rounded=1;whiteSpace=wrap;html=1;" vertex="1" parent="dcoyDgPZmvbn902EZFK9-3">
                    <mxGeometry x="597.5" y="280" width="160" height="40" as="geometry"/>
                </mxCell>
                <mxCell id="dcoyDgPZmvbn902EZFK9-15" value="" style="rounded=1;whiteSpace=wrap;html=1;" vertex="1" parent="dcoyDgPZmvbn902EZFK9-3">
                    <mxGeometry x="707.5" y="280" width="50" height="40" as="geometry"/>
                </mxCell>
                <mxCell id="dcoyDgPZmvbn902EZFK9-16" value="Option" style="text;html=1;strokeColor=none;fillColor=none;align=center;verticalAlign=middle;whiteSpace=wrap;rounded=0;" vertex="1" parent="dcoyDgPZmvbn902EZFK9-3">
                    <mxGeometry x="168" y="250" width="60" height="30" as="geometry"/>
                </mxCell>
                <mxCell id="dcoyDgPZmvbn902EZFK9-102" value="Option" style="text;html=1;strokeColor=none;fillColor=none;align=center;verticalAlign=middle;whiteSpace=wrap;rounded=0;" vertex="1" parent="dcoyDgPZmvbn902EZFK9-3">
                    <mxGeometry x="377.5" y="250" width="60" height="30" as="geometry"/>
                </mxCell>
                <mxCell id="dcoyDgPZmvbn902EZFK9-103" value="Option" style="text;html=1;strokeColor=none;fillColor=none;align=center;verticalAlign=middle;whiteSpace=wrap;rounded=0;" vertex="1" parent="dcoyDgPZmvbn902EZFK9-3">
                    <mxGeometry x="598" y="250" width="60" height="30" as="geometry"/>
                </mxCell>
                <mxCell id="dcoyDgPZmvbn902EZFK9-104" value="" style="rounded=1;whiteSpace=wrap;html=1;" vertex="1" parent="dcoyDgPZmvbn902EZFK9-3">
                    <mxGeometry x="160" y="70" width="610" height="170" as="geometry"/>
                </mxCell>
                <mxCell id="dcoyDgPZmvbn902EZFK9-281" value="Option" style="text;html=1;strokeColor=none;fillColor=none;align=center;verticalAlign=middle;whiteSpace=wrap;rounded=0;" vertex="1" parent="dcoyDgPZmvbn902EZFK9-3">
                    <mxGeometry x="177.5" y="40" width="60" height="30" as="geometry"/>
                </mxCell>
            </root>
        </mxGraphModel>
    </diagram>
    <diagram id="xVijao8VR69p3rM0o0jk" name="Player">
        <mxGraphModel dx="836" dy="550" grid="1" gridSize="10" guides="1" tooltips="1" connect="1" arrows="1" fold="1" page="1" pageScale="1" pageWidth="850" pageHeight="1100" math="0" shadow="0">
            <root>
                <mxCell id="0"/>
                <mxCell id="1" parent="0"/>
                <mxCell id="uYnIg13-EWE7CksJrvcK-1" value="" style="rounded=0;whiteSpace=wrap;html=1;movable=1;resizable=1;rotatable=1;deletable=1;editable=1;connectable=1;" vertex="1" parent="1">
                    <mxGeometry x="40" y="40" width="800" height="480" as="geometry"/>
                </mxCell>
                <mxCell id="uYnIg13-EWE7CksJrvcK-2" value="" style="triangle;whiteSpace=wrap;html=1;" vertex="1" parent="1">
                    <mxGeometry x="410" y="240" width="60" height="80" as="geometry"/>
                </mxCell>
                <mxCell id="uYnIg13-EWE7CksJrvcK-3" value="" style="ellipse;whiteSpace=wrap;html=1;aspect=fixed;" vertex="1" parent="1">
                    <mxGeometry x="805" y="45" width="30" height="30" as="geometry"/>
                </mxCell>
                <mxCell id="uYnIg13-EWE7CksJrvcK-4" value="" style="rounded=0;whiteSpace=wrap;html=1;" vertex="1" parent="1">
                    <mxGeometry x="40" y="500" width="800" height="20" as="geometry"/>
                </mxCell>
                <mxCell id="uYnIg13-EWE7CksJrvcK-5" value="1:00" style="text;html=1;strokeColor=none;fillColor=none;align=center;verticalAlign=middle;whiteSpace=wrap;rounded=0;" vertex="1" parent="1">
                    <mxGeometry x="50" y="500" width="30" height="20" as="geometry"/>
                </mxCell>
                <mxCell id="uYnIg13-EWE7CksJrvcK-6" value="1:00:00" style="text;html=1;strokeColor=none;fillColor=none;align=center;verticalAlign=middle;whiteSpace=wrap;rounded=0;" vertex="1" parent="1">
                    <mxGeometry x="795" y="500" width="40" height="20" as="geometry"/>
                </mxCell>
                <mxCell id="uYnIg13-EWE7CksJrvcK-7" value="" style="rounded=0;whiteSpace=wrap;html=1;" vertex="1" parent="1">
                    <mxGeometry x="100" y="500" width="10" height="20" as="geometry"/>
                </mxCell>
                <mxCell id="uYnIg13-EWE7CksJrvcK-9" value="" style="rounded=1;whiteSpace=wrap;html=1;" vertex="1" parent="1">
                    <mxGeometry x="50" y="50" width="35" height="20" as="geometry"/>
                </mxCell>
                <mxCell id="uYnIg13-EWE7CksJrvcK-10" value="" style="ellipse;whiteSpace=wrap;html=1;aspect=fixed;" vertex="1" parent="1">
                    <mxGeometry x="810" y="90" width="20" height="20" as="geometry"/>
                </mxCell>
                <mxCell id="uYnIg13-EWE7CksJrvcK-11" value="" style="ellipse;whiteSpace=wrap;html=1;aspect=fixed;" vertex="1" parent="1">
                    <mxGeometry x="810" y="120" width="20" height="20" as="geometry"/>
                </mxCell>
                <mxCell id="uYnIg13-EWE7CksJrvcK-12" value="" style="ellipse;whiteSpace=wrap;html=1;aspect=fixed;" vertex="1" parent="1">
                    <mxGeometry x="810" y="150" width="20" height="20" as="geometry"/>
                </mxCell>
            </root>
        </mxGraphModel>
    </diagram>
</mxfile>